StickNoBills-latin-1.ufo
<glyph name="four" format="1">
  <advance width="491"/>
  <unicode hex="0034"/>
  <outline>
    <contour>
      <point x="20" y="142" type="line"/>
      <point x="20" y="272" type="line"/>
      <point x="210" y="598" type="line"/>
      <point x="210" y="346" type="line"/>
      <point x="164" y="272" type="line"/>
      <point x="210" y="272" type="line"/>
      <point x="210" y="142" type="line"/>
    </contour>
    <contour>
      <point x="267" y="0" type="line"/>
      <point x="267" y="701" type="line"/>
      <point x="407" y="701" type="line"/>
      <point x="407" y="272" type="line"/>
      <point x="461" y="272" type="line"/>
      <point x="461" y="142" type="line"/>
      <point x="407" y="142" type="line"/>
      <point x="407" y="0" type="line"/>
    </contour>
  </outline>
</glyph>
<glyph name="A" format="1">
  <advance width="528"/>
  <unicode hex="0041"/>
  <outline>
    <contour>
      <point x="32" y="0" type="line"/>
      <point x="161" y="582" type="line"/>
      <point x="176" y="582" type="line"/>
      <point x="236" y="302" type="line"/>
      <point x="170" y="0" type="line"/>
    </contour>
    <contour>
      <point x="245" y="85" type="line"/>
      <point x="275" y="223" type="line"/>
      <point x="311" y="223" type="line"/>
      <point x="205" y="700" type="line"/>
      <point x="344" y="700" type="line"/>
      <point x="509" y="0" type="line"/>
      <point x="369" y="0" type="line"/>
      <point x="349" y="85" type="line"/>
    </contour>
  </outline>
</glyph>
<glyph name="G" format="1">
  <advance width="507"/>
  <unicode hex="0047"/>
  <outline>
    <contour>
      <point x="38" y="192" type="curve"/>
      <point x="38" y="524" type="line"/>
      <point x="46" y="589"/>
      <point x="102" y="705"/>
      <point x="234" y="705" type="curve"/>
      <point x="234" y="564" type="line"/>
      <point x="188" y="563"/>
      <point x="178" y="523"/>
      <point x="179" y="508" type="curve"/>
      <point x="179" y="192" type="line" smooth="yes"/>
      <point x="180" y="146"/>
      <point x="229" y="136"/>
      <point x="234" y="136" type="curve"/>
      <point x="234" y="-5" type="line"/>
      <point x="174" y="-5"/>
      <point x="38" y="48"/>
    </contour>
    <contour>
      <point x="288" y="-5" type="curve"/>
      <point x="288" y="136" type="line"/>
      <point x="294" y="136"/>
      <point x="331" y="155"/>
      <point x="331" y="190" type="curve" smooth="yes"/>
      <point x="331" y="223" type="line"/>
      <point x="288" y="223" type="line"/>
      <point x="288" y="353" type="line"/>
      <point x="473" y="353" type="line"/>
      <point x="473" y="176" type="line" smooth="yes"/>
      <point x="473" y="95"/>
      <point x="370" y="-4"/>
    </contour>
    <contour>
      <point x="288" y="564" type="curve"/>
      <point x="288" y="705" type="line"/>
      <point x="381" y="705"/>
      <point x="473" y="612"/>
      <point x="473" y="516" type="curve"/>
      <point x="335" y="465" type="line"/>
      <point x="335" y="504" type="line" smooth="yes"/>
      <point x="335" y="544.805"/>
      <point x="310.365" y="563.319"/>
    </contour>
  </outline>
</glyph>
<glyph name="R" format="1">
  <advance width="505"/>
  <unicode hex="0052"/>
  <outline>
    <contour>
      <point x="42" y="0" type="line"/>
      <point x="42" y="700" type="line"/>
      <point x="183" y="700" type="line"/>
      <point x="183" y="0" type="line"/>
    </contour>
    <contour>
      <point x="237" y="286" type="line"/>
      <point x="237" y="411" type="line"/>
      <point x="250" y="411" type="line" smooth="yes"/>
      <point x="310" y="411"/>
      <point x="336" y="450"/>
      <point x="336" y="490" type="curve" smooth="yes"/>
      <point x="336" y="538"/>
      <point x="299" y="567"/>
      <point x="250" y="567" type="curve" smooth="yes"/>
      <point x="237" y="567" type="line"/>
      <point x="237" y="700" type="line"/>
      <point x="259" y="700" type="line"/>
      <point x="397.747" y="697.533"/>
      <point x="468" y="613.25"/>
      <point x="468" y="510" type="curve" smooth="yes"/>
      <point x="468" y="436.145"/>
      <point x="441.413" y="385.203"/>
      <point x="400" y="352" type="curve"/>
      <point x="441" y="326"/>
      <point x="462" y="266"/>
      <point x="466" y="217" type="curve" smooth="yes"/>
      <point x="483" y="0" type="line"/>
      <point x="353" y="0" type="line"/>
      <point x="338" y="178" type="line" smooth="yes"/>
      <point x="331.375" y="252.769"/>
      <point x="310.418" y="285.003"/>
      <point x="248" y="286" type="curve"/>
    </contour>
  </outline>
</glyph>
<glyph name="T" format="1">
  <advance width="463"/>
  <unicode hex="0054"/>
  <outline>
    <contour>
      <point x="15" y="562" type="line"/>
      <point x="15" y="700" type="line"/>
      <point x="448" y="700" type="line"/>
      <point x="448" y="562" type="line"/>
      <point x="302" y="562" type="line"/>
      <point x="302" y="0" type="line"/>
      <point x="161" y="0" type="line"/>
      <point x="161" y="562" type="line"/>
    </contour>
  </outline>
</glyph>
<glyph name="W" format="1">
  <advance width="792"/>
  <unicode hex="0057"/>
  <outline>
    <contour>
      <point x="10" y="700" type="line"/>
      <point x="154" y="700" type="line"/>
      <point x="313" y="158" type="line"/>
      <point x="260" y="0" type="line"/>
      <point x="213" y="0" type="line"/>
    </contour>
    <contour>
      <point x="267" y="514" type="line"/>
      <point x="322" y="700" type="line"/>
      <point x="466" y="700" type="line"/>
      <point x="426" y="569"/>
      <point x="385" y="430"/>
      <point x="343" y="290" type="curve"/>
      <point x="333" y="290" type="line"/>
    </contour>
    <contour>
      <point x="322" y="700" type="line"/>
      <point x="466" y="700" type="line"/>
      <point x="624" y="158" type="line"/>
      <point x="572" y="0" type="line"/>
      <point x="525" y="0" type="line"/>
    </contour>
    <contour>
      <point x="583" y="514" type="line"/>
      <point x="638" y="700" type="line"/>
      <point x="782" y="700" type="line"/>
      <point x="659" y="290" type="line"/>
      <point x="649" y="290" type="line"/>
    </contour>
  </outline>
</glyph>
<glyph name="X" format="1">
  <advance width="442"/>
  <unicode hex="0058"/>
  <outline>
    <contour>
      <point x="15" y="0" type="line"/>
      <point x="151" y="361" type="line"/>
      <point x="27" y="700" type="line"/>
      <point x="164" y="700" type="line"/>
      <point x="221" y="548" type="line"/>
      <point x="278" y="700" type="line"/>
      <point x="415" y="700" type="line"/>
      <point x="291" y="361" type="line"/>
      <point x="427" y="0" type="line"/>
      <point x="282" y="0" type="line"/>
      <point x="221" y="167" type="line"/>
      <point x="160" y="0" type="line"/>
    </contour>
  </outline>
</glyph>
<glyph name="grave" format="1">
  <advance width="346"/>
  <unicode hex="0060"/>
  <outline>
    <contour>
      <point x="42" y="757" type="line"/>
      <point x="169" y="757" type="line"/>
      <point x="206" y="605" type="line"/>
      <point x="115" y="605" type="line"/>
    </contour>
  </outline>
</glyph>
<glyph name="b" format="1">
  <advance width="466"/>
  <unicode hex="0062"/>
  <outline>
    <contour>
      <point x="42" y="0" type="line"/>
      <point x="42" y="716" type="line"/>
      <point x="179.5" y="716" type="line"/>
      <point x="179.5" y="0" type="line"/>
    </contour>
    <contour>
      <point x="232.5" y="-0.160156" type="line"/>
      <point x="232.5" y="129.64" type="line"/>
      <point x="268.8" y="129.64" type="line" smooth="yes"/>
      <point x="299.6" y="129.64"/>
      <point x="306.199" y="156.04"/>
      <point x="306.199" y="157.14" type="curve"/>
      <point x="306.199" y="412.6" type="line"/>
      <point x="306.199" y="414.8"/>
      <point x="299.6" y="439"/>
      <point x="269.899" y="440.1" type="curve" smooth="yes"/>
      <point x="232.5" y="440.1" type="line"/>
      <point x="232.5" y="569.9" type="line"/>
      <point x="268.8" y="569.9" type="line" smooth="yes"/>
      <point x="381" y="569.9"/>
      <point x="434.899" y="466.5"/>
      <point x="436" y="417" type="curve"/>
      <point x="436" y="154.94" type="line" smooth="yes"/>
      <point x="436" y="106.54"/>
      <point x="382.1" y="-0.160156"/>
      <point x="268.8" y="-0.160156" type="curve" smooth="yes"/>
    </contour>
  </outline>
</glyph>
<glyph name="f" format="1">
  <advance width="321"/>
  <unicode hex="0066"/>
  <outline>
    <contour>
      <point x="15.1992" y="388.99" type="line"/>
      <point x="15.1992" y="518.59" type="line"/>
      <point x="84.5" y="518.59" type="line"/>
      <point x="84.5" y="558.19" type="line" smooth="yes"/>
      <point x="84.5" y="607.69"/>
      <point x="140.6" y="715.49"/>
      <point x="253.899" y="716.59" type="curve" smooth="yes"/>
      <point x="321" y="716.59" type="line"/>
      <point x="291.3" y="587.89" type="line"/>
      <point x="255" y="587.89" type="line"/>
      <point x="224.199" y="586.79"/>
      <point x="218.699" y="561.49"/>
      <point x="218.699" y="558.19" type="curve" smooth="yes"/>
      <point x="218.699" y="519.49" type="line"/>
      <point x="291.3" y="518.59" type="line"/>
      <point x="291.3" y="388.99" type="line"/>
      <point x="218.699" y="388.99" type="line"/>
      <point x="218.699" y="-0.00976562" type="line"/>
      <point x="84.5" y="-0.00976562" type="line"/>
      <point x="84.5" y="388.99" type="line"/>
    </contour>
  </outline>
</glyph>
<glyph name="h" format="1">
  <advance width="473"/>
  <unicode hex="0068"/>
  <outline>
    <contour>
      <point x="41.5" y="-8.05957" type="line"/>
      <point x="41.5" y="715.64" type="line"/>
      <point x="166.9" y="715.64" type="line"/>
      <point x="166.9" y="546.34" type="line"/>
      <point x="181.363" y="551.164"/>
      <point x="202.632" y="552.94"/>
      <point x="220.8" y="552.94" type="curve"/>
      <point x="220.8" y="429.74" type="line"/>
      <point x="184.085" y="429.74"/>
      <point x="168" y="397.308"/>
      <point x="168" y="392.34" type="curve" smooth="yes"/>
      <point x="168" y="-8.05957" type="line"/>
    </contour>
    <contour>
      <point x="270.3" y="429.74" type="curve"/>
      <point x="270.3" y="552.94" type="line"/>
      <point x="378.989" y="552.94"/>
      <point x="443" y="477.822"/>
      <point x="443" y="402.24" type="curve" smooth="yes"/>
      <point x="443" y="-8.05957" type="line"/>
      <point x="317.6" y="-8.05957" type="line"/>
      <point x="317.6" y="392.34" type="line" smooth="yes"/>
      <point x="317.6" y="396.37"/>
      <point x="309.286" y="429.74"/>
    </contour>
  </outline>
</glyph>
<glyph name="k" format="1">
  <advance width="500"/>
  <unicode hex="006B"/>
  <outline>
    <contour>
      <point x="42" y="0" type="line"/>
      <point x="42" y="716" type="line"/>
      <point x="179.5" y="716" type="line"/>
      <point x="179.5" y="0" type="line"/>
    </contour>
    <contour>
      <point x="208.801" y="287.3" type="line"/>
      <point x="332" y="570" type="line"/>
      <point x="478.301" y="570" type="line"/>
      <point x="351.801" y="287.3" type="line"/>
      <point x="480" y="-0.110352" type="line"/>
      <point x="334.8" y="-0.110352" type="line"/>
    </contour>
  </outline>
</glyph>
<glyph name="o" format="1">
  <advance width="476"/>
  <unicode hex="006F"/>
  <outline>
    <contour>
      <point x="38" y="155.14" type="curve" smooth="yes"/>
      <point x="37.5996" y="416" type="line" smooth="yes"/>
      <point x="37.5996" y="469.627"/>
      <point x="96.4707" y="570"/>
      <point x="218" y="570" type="curve"/>
      <point x="218" y="440.2" type="line"/>
      <point x="178.502" y="440.2"/>
      <point x="169.6" y="416.921"/>
      <point x="169.6" y="401.7" type="curve" smooth="yes"/>
      <point x="170" y="169.44" type="line" smooth="yes"/>
      <point x="170.043" y="144.627"/>
      <point x="181.7" y="128.74"/>
      <point x="218.4" y="128.74" type="curve"/>
      <point x="218.4" y="-1.05957" type="line"/>
      <point x="95.7329" y="-1.05957"/>
      <point x="38.0807" y="102.533"/>
    </contour>
    <contour>
      <point x="263.5" y="-1.05957" type="curve"/>
      <point x="263.5" y="128.74" type="line"/>
      <point x="301.037" y="128.74"/>
      <point x="309.727" y="151.725"/>
      <point x="309.7" y="167.24" type="curve" smooth="yes"/>
      <point x="309.3" y="401.7" type="line" smooth="yes"/>
      <point x="309.3" y="424.352"/>
      <point x="299.667" y="440.2"/>
      <point x="263.1" y="440.2" type="curve"/>
      <point x="263.1" y="570" type="line"/>
      <point x="380.357" y="570"/>
      <point x="438" y="469.728"/>
      <point x="438" y="416" type="curve" smooth="yes"/>
      <point x="438.4" y="155.14" type="line" smooth="yes"/>
      <point x="438.483" y="101.404"/>
      <point x="381.904" y="-1.05957"/>
    </contour>
  </outline>
</glyph>
<glyph name="r" format="1">
  <advance width="361"/>
  <unicode hex="0072"/>
  <outline>
    <contour>
      <point x="42" y="0" type="line"/>
      <point x="42" y="570" type="line"/>
      <point x="178" y="570" type="line"/>
      <point x="178" y="507" type="line"/>
      <point x="201.101" y="536.7"/>
      <point x="254.2" y="574.59"/>
      <point x="314.7" y="574.59" type="curve" smooth="yes"/>
      <point x="351" y="574.59" type="line"/>
      <point x="320.2" y="441.49" type="line"/>
      <point x="246.5" y="440.39"/>
      <point x="178.3" y="371.09"/>
      <point x="178.3" y="305.09" type="curve" smooth="yes"/>
      <point x="178.3" y="-0.00976562" type="line"/>
    </contour>
  </outline>
</glyph>
<glyph name="w" format="1">
  <advance width="723"/>
  <unicode hex="0077"/>
  <outline>
    <contour>
      <point x="7" y="570" type="line"/>
      <point x="156" y="570" type="line"/>
      <point x="301.6" y="137.99" type="line"/>
      <point x="257.3" y="-0.00976562" type="line"/>
      <point x="181.399" y="-0.00976562" type="line"/>
    </contour>
    <contour>
      <point x="245.2" y="433.39" type="line"/>
      <point x="287" y="570" type="line"/>
      <point x="436" y="570" type="line"/>
      <point x="328.8" y="228.79" type="line"/>
      <point x="315.6" y="228.79" type="line"/>
    </contour>
    <contour>
      <point x="287" y="570" type="line"/>
      <point x="436" y="570" type="line"/>
      <point x="581.6" y="137.99" type="line"/>
      <point x="537.3" y="-0.00976562" type="line"/>
      <point x="461.399" y="-0.00976562" type="line"/>
    </contour>
    <contour>
      <point x="525.2" y="433.39" type="line"/>
      <point x="567" y="570" type="line"/>
      <point x="716" y="570" type="line"/>
      <point x="608.8" y="228.79" type="line"/>
      <point x="595.6" y="228.79" type="line"/>
    </contour>
  </outline>
</glyph>
<glyph name="x" format="1">
  <advance width="416"/>
  <unicode hex="0078"/>
  <outline>
    <contour>
      <point x="7.59961" y="-0.00976562" type="line"/>
      <point x="133" y="288.19" type="line"/>
      <point x="10" y="570" type="line"/>
      <point x="147.5" y="570" type="line"/>
      <point x="207.8" y="438.89" type="line"/>
      <point x="266.4" y="570" type="line"/>
      <point x="405" y="570" type="line"/>
      <point x="283.7" y="288.19" type="line"/>
      <point x="408" y="-0.00976562" type="line"/>
      <point x="270.5" y="-0.00976562" type="line"/>
      <point x="207.8" y="138.59" type="line"/>
      <point x="145.1" y="-0.00976562" type="line"/>
    </contour>
  </outline>
</glyph>
<glyph name="z" format="1">
  <advance width="386"/>
  <unicode hex="007A"/>
  <outline>
    <contour>
      <point x="30.4004" y="0.0898438" type="line"/>
      <point x="29.7002" y="130.89" type="line"/>
      <point x="203.101" y="440" type="line"/>
      <point x="30.4004" y="440" type="line"/>
      <point x="30.4004" y="570" type="line"/>
      <point x="356" y="570" type="line"/>
      <point x="356.101" y="440" type="line"/>
      <point x="187.7" y="130.89" type="line"/>
      <point x="356" y="131" type="line"/>
      <point x="356" y="0.0898438" type="line"/>
    </contour>
  </outline>
</glyph>
<glyph name="yen" format="1">
  <advance width="449"/>
  <unicode hex="00A5"/>
  <outline>
    <contour>
      <point x="16" y="299" type="line"/>
      <point x="441" y="299" type="line"/>
      <point x="441" y="239" type="line"/>
      <point x="16" y="239" type="line"/>
    </contour>
    <contour>
      <point x="16" y="409" type="line"/>
      <point x="441" y="409" type="line"/>
      <point x="441" y="349" type="line"/>
      <point x="16" y="349" type="line"/>
    </contour>
    <contour>
      <point x="165" y="0" type="line"/>
      <point x="165" y="238" type="line"/>
      <point x="35" y="698" type="line"/>
      <point x="172" y="698" type="line"/>
      <point x="235" y="485" type="line"/>
      <point x="295" y="698" type="line"/>
      <point x="432" y="698" type="line"/>
      <point x="302" y="236" type="line"/>
      <point x="302" y="0" type="line"/>
    </contour>
  </outline>
</glyph>
<glyph name="logicalnot" format="1">
  <advance width="540"/>
  <unicode hex="00AC"/>
  <outline>
    <contour>
      <point x="40" y="327" type="line"/>
      <point x="40" y="442" type="line"/>
      <point x="490" y="442" type="line"/>
      <point x="490" y="208" type="line"/>
      <point x="372" y="208" type="line"/>
      <point x="372" y="327" type="line"/>
    </contour>
  </outline>
</glyph>
<glyph name="degree" format="1">
  <advance width="301"/>
  <unicode hex="00B0"/>
  <outline>
    <contour>
      <point x="35" y="583" type="curve" smooth="yes"/>
      <point x="35" y="647"/>
      <point x="87" y="698"/>
      <point x="150" y="698" type="curve" smooth="yes"/>
      <point x="214" y="698"/>
      <point x="266" y="647"/>
      <point x="266" y="583" type="curve" smooth="yes"/>
      <point x="266" y="520"/>
      <point x="214" y="468"/>
      <point x="150" y="468" type="curve" smooth="yes"/>
      <point x="87" y="468"/>
      <point x="35" y="520"/>
    </contour>
    <contour>
      <point x="112" y="583" type="curve" smooth="yes"/>
      <point x="112" y="562"/>
      <point x="129" y="545"/>
      <point x="150" y="545" type="curve" smooth="yes"/>
      <point x="172" y="545"/>
      <point x="189" y="562"/>
      <point x="189" y="583" type="curve" smooth="yes"/>
      <point x="189" y="605"/>
      <point x="172" y="622"/>
      <point x="150" y="622" type="curve" smooth="yes"/>
      <point x="129" y="622"/>
      <point x="112" y="605"/>
    </contour>
  </outline>
</glyph>
<glyph name="plusminus" format="1">
  <advance width="427"/>
  <unicode hex="00B1"/>
  <outline>
    <contour>
      <point x="26" y="40" type="line"/>
      <point x="26" y="167" type="line"/>
      <point x="402" y="167" type="line"/>
      <point x="402" y="40" type="line"/>
    </contour>
    <component base="plus" xOffset="10" yOffset="161"/>
  </outline>
</glyph>
<glyph name="threesuperior" format="1">
  <advance width="232"/>
  <unicode hex="00B3"/>
  <outline>
    <contour>
      <point x="121.7" y="386.675" type="curve"/>
      <point x="121.7" y="445.175" type="line"/>
      <point x="136.562" y="446.525"/>
      <point x="155" y="454.036"/>
      <point x="155" y="476.675" type="curve" smooth="yes"/>
      <point x="155" y="498.372"/>
      <point x="145.55" y="514.925"/>
      <point x="96.9502" y="514.925" type="curve"/>
      <point x="96.9502" y="573.425" type="line"/>
      <point x="145.541" y="573.425"/>
      <point x="155" y="590.428"/>
      <point x="155" y="611.675" type="curve" smooth="yes"/>
      <point x="155" y="634.314"/>
      <point x="136.562" y="641.825"/>
      <point x="121.7" y="643.175" type="curve"/>
      <point x="121.7" y="701.675" type="line"/>
      <point x="158.354" y="701.675"/>
      <point x="213.5" y="678.806"/>
      <point x="213.5" y="612.125" type="curve" smooth="yes"/>
      <point x="213.5" y="573.875"/>
      <point x="195.95" y="552.725"/>
      <point x="183.35" y="544.175" type="curve"/>
      <point x="195.95" y="535.625"/>
      <point x="213.5" y="514.475"/>
      <point x="213.5" y="476.225" type="curve" smooth="yes"/>
      <point x="213.5" y="409.544"/>
      <point x="158.354" y="386.675"/>
    </contour>
    <contour>
      <point x="14.5996" y="467.225" type="curve"/>
      <point x="69.0498" y="477.575" type="line"/>
      <point x="69.0498" y="451.925"/>
      <point x="89.2998" y="445.175"/>
      <point x="96.9502" y="445.175" type="curve"/>
      <point x="96.9502" y="386.675" type="line"/>
      <point x="52.8496" y="386.675"/>
      <point x="14.5996" y="426.275"/>
    </contour>
    <contour>
      <point x="14.5996" y="621.125" type="line"/>
      <point x="14.5996" y="662.075"/>
      <point x="52.8496" y="701.675"/>
      <point x="96.9502" y="701.675" type="curve"/>
      <point x="96.9502" y="643.175" type="line"/>
      <point x="89.2998" y="642.275"/>
      <point x="69.0498" y="636.425"/>
      <point x="69.0498" y="610.775" type="curve"/>
    </contour>
  </outline>
</glyph>
<glyph name="eth" format="1">
  <advance width="420"/>
  <unicode hex="00F0"/>
  <outline>
    <contour>
      <point x="28" y="141" type="curve" smooth="yes"/>
      <point x="28" y="376" type="line" smooth="yes"/>
      <point x="28" y="424.752"/>
      <point x="81.5188" y="516"/>
      <point x="192" y="516" type="curve"/>
      <point x="192" y="398" type="line"/>
      <point x="156.092" y="398"/>
      <point x="148" y="376.836"/>
      <point x="148" y="363" type="curve" smooth="yes"/>
      <point x="148" y="154" type="line" smooth="yes"/>
      <point x="148" y="131.443"/>
      <point x="158.637" y="117"/>
      <point x="192" y="117" type="curve"/>
      <point x="192" y="-1" type="line"/>
      <point x="80.4842" y="-1"/>
      <point x="28" y="93.1756"/>
    </contour>
    <contour>
      <point x="192" y="647" type="curve"/>
      <point x="192" y="714" type="line"/>
      <point x="250" y="703"/>
      <point x="297" y="679"/>
      <point x="330" y="641" type="curve"/>
      <point x="380" y="657" type="line"/>
      <point x="398" y="599" type="line"/>
      <point x="364" y="588" type="line"/>
      <point x="383" y="548"/>
      <point x="392" y="500"/>
      <point x="392" y="442" type="curve" smooth="yes"/>
      <point x="392" y="141" type="line" smooth="yes"/>
      <point x="392" y="92.1498"/>
      <point x="340.64" y="-1"/>
      <point x="233" y="-1" type="curve"/>
      <point x="233" y="117" type="line"/>
      <point x="267.125" y="117"/>
      <point x="275" y="137.897"/>
      <point x="275" y="152" type="curve" smooth="yes"/>
      <point x="275" y="363" type="line" smooth="yes"/>
      <point x="275" y="383.592"/>
      <point x="266.243" y="398"/>
      <point x="233" y="398" type="curve"/>
      <point x="233" y="516" type="line"/>
      <point x="247.851" y="516"/>
      <point x="260.062" y="515.529"/>
      <point x="273" y="512" type="curve"/>
      <point x="271" y="530"/>
      <point x="270" y="545"/>
      <point x="267" y="558" type="curve"/>
      <point x="210" y="541" type="line"/>
      <point x="192" y="598" type="line"/>
      <point x="242" y="614" type="line"/>
      <point x="230" y="627"/>
      <point x="214" y="637"/>
    </contour>
  </outline>
</glyph>
<glyph name="divide" format="1">
  <advance width="650"/>
  <unicode hex="00F7"/>
  <outline>
    <contour>
      <point x="68" y="228" type="line"/>
      <point x="68" y="355" type="line"/>
      <point x="518" y="355" type="line"/>
      <point x="518" y="228" type="line"/>
    </contour>
    <component base="period" xOffset="196" yOffset="415"/>
    <component base="period" xOffset="196" yOffset="62"/>
  </outline>
</glyph>
<glyph name="ring" format="1">
  <advance width="244"/>
  <unicode hex="02DA"/>
  <outline>
    <contour>
      <point x="26" y="526" type="curve" smooth="yes"/>
      <point x="26" y="579"/>
      <point x="69" y="622"/>
      <point x="122" y="622" type="curve" smooth="yes"/>
      <point x="175" y="622"/>
      <point x="218" y="579"/>
      <point x="218" y="526" type="curve" smooth="yes"/>
      <point x="218" y="473"/>
      <point x="175" y="430"/>
      <point x="122" y="430" type="curve" smooth="yes"/>
      <point x="69" y="430"/>
      <point x="26" y="473"/>
    </contour>
    <contour>
      <point x="90" y="526" type="curve" smooth="yes"/>
      <point x="90" y="508"/>
      <point x="104" y="494"/>
      <point x="122" y="494" type="curve" smooth="yes"/>
      <point x="140" y="494"/>
      <point x="154" y="508"/>
      <point x="154" y="526" type="curve" smooth="yes"/>
      <point x="154" y="544"/>
      <point x="140" y="558"/>
      <point x="122" y="558" type="curve" smooth="yes"/>
      <point x="104" y="558"/>
      <point x="90" y="544"/>
    </contour>
  </outline>
</glyph>
<glyph name="ogonek" format="1">
  <advance width="219"/>
  <unicode hex="02DB"/>
  <outline>
    <contour>
      <point x="106" y="-199" type="line"/>
      <point x="-21" y="-199"/>
      <point x="-62" y="-116"/>
      <point x="-62" y="-40" type="curve"/>
      <point x="30" y="-40" type="line"/>
      <point x="30" y="-95"/>
      <point x="70" y="-108"/>
      <point x="106" y="-108" type="curve"/>
    </contour>
  </outline>
</glyph>
<glyph name="pi" format="1">
  <advance width="533"/>
  <unicode hex="03C0"/>
  <outline>
    <contour>
      <point x="30" y="389" type="line"/>
      <point x="30" y="519" type="line"/>
      <point x="503" y="519" type="line"/>
      <point x="503" y="389" type="line"/>
      <point x="446" y="389" type="line"/>
      <point x="446" y="142" type="line" smooth="yes"/>
      <point x="446" y="128.337"/>
      <point x="453.559" y="108"/>
      <point x="489" y="108" type="curve"/>
      <point x="489" y="-4" type="line"/>
      <point x="390.192" y="-4"/>
      <point x="327" y="54.2891"/>
      <point x="327" y="133" type="curve" smooth="yes"/>
      <point x="327" y="389" type="line"/>
      <point x="209" y="389" type="line"/>
      <point x="209" y="0" type="line"/>
      <point x="87" y="0" type="line"/>
      <point x="87" y="389" type="line"/>
    </contour>
  </outline>
</glyph>
<glyph name="uni2126" format="1">
  <advance width="473"/>
  <unicode hex="2126"/>
  <outline>
    <contour>
      <point x="30" y="0" type="line"/>
      <point x="30" y="65" type="line"/>
      <point x="76.5938" y="65" type="line"/>
      <point x="55.2822" y="92.9883"/>
      <point x="45" y="124.047"/>
      <point x="45" y="144" type="curve" smooth="yes"/>
      <point x="45" y="379" type="line" smooth="yes"/>
      <point x="45" y="428.752"/>
      <point x="95.5186" y="519"/>
      <point x="209" y="519" type="curve"/>
      <point x="209" y="401" type="line"/>
      <point x="173.093" y="401"/>
      <point x="165" y="380.836"/>
      <point x="165" y="366" type="curve" smooth="yes"/>
      <point x="165" y="157" type="line" smooth="yes"/>
      <point x="165" y="134.442"/>
      <point x="173.637" y="120"/>
      <point x="209" y="120" type="curve"/>
      <point x="209" y="0" type="line"/>
    </contour>
    <contour>
      <point x="264" y="0" type="line"/>
      <point x="264" y="120" type="line"/>
      <point x="299.363" y="120"/>
      <point x="308" y="134.442"/>
      <point x="308" y="157" type="curve" smooth="yes"/>
      <point x="308" y="366" type="line" smooth="yes"/>
      <point x="308" y="380.836"/>
      <point x="299.907" y="401"/>
      <point x="264" y="401" type="curve"/>
      <point x="264" y="519" type="line"/>
      <point x="377.481" y="519"/>
      <point x="428" y="428.752"/>
      <point x="428" y="379" type="curve" smooth="yes"/>
      <point x="428" y="144" type="line" smooth="yes"/>
      <point x="428" y="124.047"/>
      <point x="417.718" y="92.9883"/>
      <point x="396.406" y="65" type="curve"/>
      <point x="443" y="65" type="line"/>
      <point x="443" y="0" type="line"/>
    </contour>
  </outline>
</glyph>
<glyph name="partialdiff" format="1">
  <advance width="420"/>
  <unicode hex="2202"/>
  <outline>
    <contour>
      <point x="28" y="141" type="curve" smooth="yes"/>
      <point x="28" y="376" type="line" smooth="yes"/>
      <point x="28" y="424.752"/>
      <point x="81.5188" y="516"/>
      <point x="192" y="516" type="curve"/>
      <point x="192" y="398" type="line"/>
      <point x="156.092" y="398"/>
      <point x="148" y="370.79"/>
      <point x="148" y="353" type="curve" smooth="yes"/>
      <point x="148" y="154" type="line" smooth="yes"/>
      <point x="148" y="131.443"/>
      <point x="158.637" y="117"/>
      <point x="192" y="117" type="curve"/>
      <point x="192" y="-1" type="line"/>
      <point x="80.4842" y="-1"/>
      <point x="28" y="93.1756"/>
    </contour>
    <contour>
      <point x="70" y="647" type="curve"/>
      <point x="70" y="714" type="line"/>
      <point x="290.916" y="714"/>
      <point x="392" y="629.789"/>
      <point x="392" y="442" type="curve" smooth="yes"/>
      <point x="392" y="141" type="line" smooth="yes"/>
      <point x="392" y="92.1498"/>
      <point x="340.64" y="-1"/>
      <point x="233" y="-1" type="curve"/>
      <point x="233" y="117" type="line"/>
      <point x="267.125" y="117"/>
      <point x="275" y="139.882"/>
      <point x="275" y="157" type="curve" smooth="yes"/>
      <point x="275" y="353" type="line" smooth="yes"/>
      <point x="275" y="379.475"/>
      <point x="266.243" y="398"/>
      <point x="233" y="398" type="curve"/>
      <point x="233" y="516" type="line"/>
      <point x="247.851" y="516"/>
      <point x="260.062" y="515.529"/>
      <point x="273" y="512" type="curve"/>
      <point x="273" y="594"/>
      <point x="182" y="647"/>
    </contour>
  </outline>
</glyph>
<glyph name="summation" format="1">
  <advance width="676"/>
  <unicode hex="2211"/>
  <outline>
    <contour>
      <point x="312" y="560" type="line"/>
      <point x="215" y="691" type="line"/>
      <point x="215" y="700" type="line"/>
      <point x="528" y="700" type="line"/>
      <point x="528" y="560" type="line"/>
    </contour>
    <contour>
      <point x="30" y="-140.134" type="line"/>
      <point x="30" y="9" type="line"/>
      <point x="250" y="311" type="line"/>
      <point x="30" y="608" type="line"/>
      <point x="30" y="700" type="line"/>
      <point x="140" y="700" type="line"/>
      <point x="429" y="307" type="line"/>
      <point x="207.109" y="9.86621" type="line"/>
      <point x="528" y="9.86621" type="line"/>
      <point x="528" y="-140.134" type="line"/>
    </contour>
  </outline>
</glyph>
<glyph name="radical" format="1">
  <advance width="639"/>
  <unicode hex="221A"/>
  <outline>
    <contour>
      <point x="6" y="513" type="line"/>
      <point x="212" y="591" type="line"/>
      <point x="357" y="234" type="line"/>
      <point x="488" y="819" type="line"/>
      <point x="629" y="819" type="line"/>
      <point x="448" y="0" type="line"/>
      <point x="306" y="0" type="line"/>
      <point x="127" y="440" type="line"/>
      <point x="42" y="409" type="line"/>
    </contour>
  </outline>
</glyph>
